<svg width="27" height="22" viewBox="0 0 27 22" fill="none" xmlns="http://www.w3.org/2000/svg">
<path d="M26.3334 2.8298C25.3715 3.24462 24.3466 3.51958 23.278 3.65308C24.3773 3.0078 25.2163 1.9938 25.6107 0.77159C24.5858 1.37236 23.4542 1.79672 22.2482 2.03353C21.275 1.01476 19.888 0.383789 18.3748 0.383789C15.4391 0.383789 13.0756 2.72649 13.0756 5.59844C13.0756 6.01167 13.1112 6.40901 13.1985 6.78728C8.79003 6.57589 4.88917 4.49861 2.26866 1.33422C1.81117 2.11459 1.54281 3.0078 1.54281 3.96936C1.54281 5.77486 2.48852 7.37534 3.8982 8.30193C3.04625 8.28603 2.21047 8.04286 1.5024 7.65983C1.5024 7.67572 1.5024 7.69639 1.5024 7.71705C1.5024 10.2505 3.34047 12.3548 5.75082 12.8395C5.31919 12.9555 4.84876 13.0112 4.36054 13.0112C4.02106 13.0112 3.67834 12.9921 3.35664 12.9222C4.04369 14.9867 5.99331 16.5046 8.31151 16.5538C6.50739 17.9413 4.21667 18.7773 1.7368 18.7773C1.30194 18.7773 0.884856 18.7583 0.467773 18.7058C2.81669 20.195 5.60048 21.0453 8.6025 21.0453C18.3603 21.0453 23.6951 13.0986 23.6951 6.21034C23.6951 5.97989 23.687 5.75738 23.6757 5.53646C24.7281 4.80218 25.6124 3.88513 26.3334 2.8298Z" fill="black"/>
</svg>
