<svg width="27" height="26" viewBox="0 0 27 26" fill="none" xmlns="http://www.w3.org/2000/svg">
<path fill-rule="evenodd" clip-rule="evenodd" d="M8.416 0L18.1156 0C22.579 0 26.1986 3.55855 26.1986 7.94675L26.1986 17.4828C26.1986 21.871 22.579 25.4296 18.1156 25.4296L8.416 25.4296C3.95257 25.4296 0.333008 21.871 0.333008 17.4828L0.333008 7.94675C0.333008 3.55855 3.95257 0 8.416 0ZM18.1153 23.0456C21.2354 23.0456 23.7734 20.5503 23.7734 17.4828L23.7734 7.94675C23.7734 4.8793 21.2354 2.38402 18.1153 2.38402L8.41575 2.38402C5.29571 2.38402 2.75765 4.8793 2.75765 7.94675L2.75765 17.4828C2.75765 20.5503 5.29571 23.0456 8.41575 23.0456L18.1153 23.0456Z" fill="black"/>
<path fill-rule="evenodd" clip-rule="evenodd" d="M6.79883 12.7148C6.79883 9.20395 9.69416 6.35742 13.2652 6.35742C16.8363 6.35742 19.7316 9.20395 19.7316 12.7148C19.7316 16.2257 16.8363 19.0722 13.2652 19.0722C9.69416 19.0722 6.79883 16.2257 6.79883 12.7148ZM9.2237 12.7148C9.2237 14.9049 11.0375 16.6882 13.2652 16.6882C15.4929 16.6882 17.3067 14.9049 17.3067 12.7148C17.3067 10.5231 15.4929 8.74145 13.2652 8.74145C11.0375 8.74145 9.2237 10.5231 9.2237 12.7148Z" fill="black"/>
<ellipse cx="20.2171" cy="5.88081" rx="0.861647" ry="0.847123" fill="black"/>
</svg>
