<svg width="193" height="33" viewBox="0 0 193 33" fill="none" xmlns="http://www.w3.org/2000/svg">
<path d="M16.5 0L20.2045 11.4012H32.1924L22.494 18.4476L26.1985 29.8488L16.5 22.8024L6.80154 29.8488L10.506 18.4476L0.807568 11.4012H12.7955L16.5 0Z" fill="#EAB544"/>
<path d="M56.5 0L60.2045 11.4012H72.1924L62.494 18.4476L66.1985 29.8488L56.5 22.8024L46.8015 29.8488L50.506 18.4476L40.8076 11.4012H52.7955L56.5 0Z" fill="#EAB544"/>
<path d="M96.5 0L100.204 11.4012H112.192L102.494 18.4476L106.198 29.8488L96.5 22.8024L86.8015 29.8488L90.506 18.4476L80.8076 11.4012H92.7955L96.5 0Z" fill="#EAB544"/>
<path d="M136.5 0L140.204 11.4012H152.192L142.494 18.4476L146.198 29.8488L136.5 22.8024L126.802 29.8488L130.506 18.4476L120.808 11.4012H132.796L136.5 0Z" fill="#EAB544"/>
<path d="M176.5 0L180.204 11.4012H192.192L182.494 18.4476L186.198 29.8488L176.5 22.8024L166.802 29.8488L170.506 18.4476L160.808 11.4012H172.796L176.5 0Z" fill="#EAB544"/>
</svg>
